<svg xmlns="http://www.w3.org/2000/svg" width="180" height="50" viewBox="0 0 180 50" version="1.1"><path d="M 17.454 10.046 L 7.525 20.013 17.759 30.246 L 27.992 40.480 41.478 27.022 C 52.214 16.308, 55.217 13.817, 56.205 14.805 C 57.193 15.793, 54.461 19.030, 42.807 30.684 L 28.169 45.323 20.334 38.097 C 15.149 33.314, 12.500 30.132, 12.500 28.686 C 12.500 26.070, 10.158 25.802, 8.620 28.241 C 7.689 29.717, 8.965 31.431, 16.991 39.491 C 22.199 44.721, 26.910 49, 27.460 49 C 28.010 49, 32.402 45.077, 37.220 40.281 L 45.979 31.563 50.495 35.995 L 55.011 40.427 61.005 34.495 C 66.362 29.194, 68.346 26, 66.281 26 C 65.886 26, 63.182 28.351, 60.273 31.225 L 54.982 36.449 51.446 32.912 L 47.909 29.376 53.395 24.188 C 56.412 21.335, 59.260 19, 59.724 19 C 60.189 19, 62.914 21.375, 65.780 24.277 L 70.992 29.555 63.001 37.499 L 55.011 45.442 49.671 40.169 C 45.263 35.815, 44.129 35.140, 43.168 36.298 C 42.232 37.425, 43.180 38.821, 48.012 43.430 C 51.316 46.582, 54.405 49.012, 54.877 48.830 C 55.349 48.649, 60.150 44.309, 65.548 39.186 L 75.361 29.873 65.201 19.713 L 55.042 9.554 41.545 22.919 C 29.812 34.537, 27.840 36.112, 26.461 34.967 C 25.067 33.811, 26.669 31.853, 39.626 18.873 L 54.379 4.096 62.439 11.798 C 66.873 16.034, 70.500 20.247, 70.500 21.160 C 70.500 23.866, 71.559 24.145, 73.537 21.959 C 75.374 19.929, 75.284 19.796, 65.204 9.716 L 55.014 -0.474 45.740 8.761 L 36.467 17.996 32.240 13.770 L 28.014 9.544 21.518 15.982 C 17.198 20.264, 15.355 22.755, 16.019 23.419 C 16.682 24.082, 18.859 22.596, 22.515 18.985 L 28.015 13.553 31.242 16.781 L 34.470 20.008 28.735 25.743 L 23 31.478 17.267 25.745 L 11.534 20.013 19.490 12.010 L 27.445 4.008 32.504 9.004 C 35.286 11.752, 38.144 14, 38.855 14 C 41.476 14, 39.338 10.609, 33.442 5.416 L 27.384 0.079 17.454 10.046 M 91.630 9.250 C 90.671 12.829, 90.905 19, 92 19 C 92.556 19, 93 16.333, 93 13 C 93 6.637, 92.614 5.580, 91.630 9.250 M 99.710 9 C 99.423 10.100, 99.657 11, 100.232 11 C 100.919 11, 101.049 13.220, 100.612 17.484 L 99.948 23.968 114.224 23.775 C 122.076 23.668, 126.161 23.428, 123.303 23.240 L 118.106 22.899 118.655 18.200 C 118.957 15.615, 118.731 11.925, 118.153 10 C 117.248 6.988, 117.182 7.372, 117.680 12.750 C 118.080 17.068, 117.909 19, 117.129 19 C 116.084 19, 115.609 17.367, 115.737 14.215 C 115.778 13.209, 115.477 13.190, 114.347 14.127 C 113.367 14.940, 113.253 15.539, 113.992 15.995 C 114.589 16.364, 115.173 17.979, 115.289 19.583 C 115.469 22.068, 115.103 22.546, 112.818 22.810 C 110.449 23.084, 110.098 22.742, 109.818 19.887 C 109.639 18.066, 108.845 16.478, 108 16.251 C 106.803 15.929, 106.770 16.038, 107.837 16.787 C 108.573 17.304, 109.023 18.800, 108.837 20.113 C 108.565 22.039, 107.824 22.557, 104.995 22.796 L 101.491 23.091 101.595 15.046 C 101.695 7.393, 100.844 4.664, 99.710 9 M 150.680 12.750 C 151.044 16.682, 150.883 19, 150.246 19 C 149.689 19, 149.008 19.860, 148.733 20.912 C 148.300 22.568, 147.283 22.824, 141.117 22.824 C 137.002 22.824, 134 22.398, 134 21.816 C 134 21.261, 134.717 18.343, 135.593 15.330 C 136.468 12.317, 136.976 9.643, 136.721 9.388 C 136.466 9.132, 135.721 11.053, 135.065 13.656 C 134.410 16.258, 132.754 19.426, 131.385 20.694 C 130.017 21.962, 129.280 23, 129.748 23 C 130.217 23, 131.140 22.460, 131.800 21.800 C 132.733 20.867, 133 20.984, 133 22.328 C 133 23.886, 134.202 24.029, 145.250 23.778 L 157.500 23.500 157.457 20.698 L 157.413 17.896 159.184 20.198 C 160.158 21.464, 160.966 22.837, 160.978 23.250 C 161.008 24.281, 168 24.204, 168 23.173 C 168 22.718, 166.729 22.533, 165.175 22.761 C 162.723 23.121, 161.926 22.537, 159.131 18.338 L 155.912 13.500 156.206 18 C 156.483 22.235, 156.340 22.518, 153.790 22.813 C 151.109 23.122, 151.086 23.072, 151.641 18.313 C 151.951 15.666, 151.731 11.925, 151.153 10 C 150.248 6.988, 150.182 7.372, 150.680 12.750 M 161 9.441 C 161 10.784, 161.385 12.120, 161.855 12.410 C 162.325 12.701, 162.663 11.604, 162.605 9.972 C 162.479 6.424, 161 5.935, 161 9.441 M 84 11 C 84 11.733, 84.300 12.033, 84.667 11.667 C 85.033 11.300, 85.033 10.700, 84.667 10.333 C 84.300 9.967, 84 10.267, 84 11 M 132 11 C 132 11.733, 132.300 12.033, 132.667 11.667 C 133.033 11.300, 133.033 10.700, 132.667 10.333 C 132.300 9.967, 132 10.267, 132 11 M 108.333 12.456 C 108.333 13.257, 108.708 13.680, 109.167 13.397 C 109.625 13.114, 110 12.459, 110 11.941 C 110 11.423, 109.625 11, 109.167 11 C 108.708 11, 108.333 11.655, 108.333 12.456 M 124 12.500 C 124 13.325, 124.450 14, 125 14 C 125.550 14, 126 13.325, 126 12.500 C 126 11.675, 125.550 11, 125 11 C 124.450 11, 124 11.675, 124 12.500 M 140 13 C 140 13.733, 140.300 14.033, 140.667 13.667 C 141.033 13.300, 141.033 12.700, 140.667 12.333 C 140.300 11.967, 140 12.267, 140 13 M 129.905 14.750 C 129.169 15.713, 128.960 16.166, 129.441 15.759 C 129.922 15.351, 131.032 15.576, 131.908 16.259 C 133.281 17.330, 133.330 17.281, 132.259 15.908 C 131.576 15.032, 131.313 14.020, 131.675 13.658 C 132.037 13.296, 132.088 13, 131.789 13 C 131.490 13, 130.642 13.787, 129.905 14.750 M 147 14 C 147 14.733, 147.300 15.033, 147.667 14.667 C 148.033 14.300, 148.033 13.700, 147.667 13.333 C 147.300 12.967, 147 13.267, 147 14 M 140.333 15.667 C 140.700 16.033, 141.300 16.033, 141.667 15.667 C 142.033 15.300, 141.733 15, 141 15 C 140.267 15, 139.967 15.300, 140.333 15.667 M 124 17.500 C 124 18.325, 124.177 19, 124.393 19 C 124.609 19, 125.045 18.325, 125.362 17.500 C 125.678 16.675, 125.501 16, 124.969 16 C 124.436 16, 124 16.675, 124 17.500 M 85.079 19.193 C 85.036 20.125, 86 21.587, 87.223 22.443 C 91.108 25.165, 97.012 24.025, 98.444 20.278 C 98.961 18.925, 98.622 19.038, 97.023 20.750 C 93.661 24.350, 87.252 23.360, 85.694 19 C 85.261 17.788, 85.143 17.825, 85.079 19.193 M 139 18.833 C 139 19.292, 139.675 19.667, 140.500 19.667 C 141.325 19.667, 142 19.292, 142 18.833 C 142 18.375, 141.325 18, 140.500 18 C 139.675 18, 139 18.375, 139 18.833 M 82 27.941 C 82 29.009, 82.402 30.131, 82.894 30.434 C 83.385 30.738, 83.723 29.865, 83.644 28.494 C 83.476 25.578, 82 25.081, 82 27.941 M 125.560 28.618 C 124.638 32.292, 125.369 32.511, 126.708 28.962 C 127.323 27.333, 127.464 26, 127.022 26 C 126.579 26, 125.921 27.178, 125.560 28.618 M 139.069 27 C 139.020 27.825, 139.988 31.762, 141.220 35.750 L 143.459 43 147.123 43 C 149.541 43, 150.992 42.462, 151.393 41.418 C 152.329 38.978, 152.055 38.301, 150.920 40.250 C 150.326 41.270, 148.710 42, 147.048 42 C 144.371 42, 144.062 41.553, 142.045 34.750 C 139.318 25.556, 139.176 25.188, 139.069 27 M 147.672 26.750 C 146.871 28.094, 147.227 33, 148.124 33 C 148.605 33, 148.887 31.426, 148.749 29.502 C 148.486 25.808, 148.385 25.551, 147.672 26.750 M 90.446 29.087 C 90.077 29.685, 90.275 30.675, 90.887 31.287 C 91.704 32.104, 92 31.815, 92 30.200 C 92 27.785, 91.481 27.413, 90.446 29.087 M 100.158 31 C 100.158 32.375, 100.385 32.938, 100.662 32.250 C 100.940 31.563, 100.940 30.438, 100.662 29.750 C 100.385 29.063, 100.158 29.625, 100.158 31 M 106 30.059 C 106 30.641, 106.519 30.797, 107.154 30.405 C 108.006 29.878, 108.130 31.429, 107.626 36.346 L 106.944 43 122.972 43 C 131.787 43, 139 42.651, 139 42.224 C 139 41.797, 137.138 41.625, 134.862 41.842 C 130.833 42.226, 130.741 42.168, 131.381 39.618 C 131.865 37.689, 131.654 37, 130.578 37 C 129.775 37, 128.843 37.445, 128.507 37.989 C 128.148 38.570, 128.583 38.714, 129.564 38.337 C 130.998 37.787, 131.071 38, 130.081 39.848 C 129.286 41.334, 127.978 42, 125.856 42 C 123.158 42, 122.856 41.726, 123.384 39.750 C 124.977 33.780, 124.905 32.896, 123.157 37 L 121.241 41.500 114.870 41.500 L 108.500 41.500 108.842 35.250 C 109.126 30.057, 108.915 29, 107.592 29 C 106.716 29, 106 29.477, 106 30.059 M 154 30.059 C 154 30.641, 154.499 30.809, 155.110 30.432 C 155.892 29.949, 156.114 31.629, 155.860 36.123 L 155.500 42.500 162.750 42.794 C 166.738 42.955, 170.001 42.730, 170.002 42.294 C 170.003 41.857, 166.965 41.500, 163.252 41.500 L 156.500 41.500 156.842 35.250 C 157.126 30.057, 156.915 29, 155.592 29 C 154.716 29, 154 29.477, 154 30.059 M 116 31.500 C 116.685 32.325, 118.427 32.933, 119.872 32.850 L 122.500 32.700 119.750 32.284 C 118.237 32.055, 117 31.447, 117 30.934 C 117 30.420, 116.495 30, 115.878 30 C 115.102 30, 115.140 30.464, 116 31.500 M 163 30.981 C 163 32.182, 167.427 33.391, 169.207 32.677 C 169.918 32.391, 169.262 32.122, 167.750 32.079 C 166.238 32.036, 165 31.550, 165 31 C 165 30.450, 164.550 30, 164 30 C 163.450 30, 163 30.441, 163 30.981 M 136 32 C 136 32.733, 136.300 33.033, 136.667 32.667 C 137.033 32.300, 137.033 31.700, 136.667 31.333 C 136.300 30.967, 136 31.267, 136 32 M 84.679 35 C 85.753 41.526, 86.718 43, 89.916 43 C 91.547 43, 93.144 42.577, 93.463 42.059 C 93.806 41.505, 92.668 41.342, 90.695 41.662 C 87.389 42.199, 87.323 42.135, 85.723 36.853 C 84.772 33.709, 84.340 32.945, 84.679 35 M 105 33 C 105 33.733, 105.300 34.033, 105.667 33.667 C 106.033 33.300, 106.033 32.700, 105.667 32.333 C 105.300 31.967, 105 32.267, 105 33 M 130.079 33.583 C 130.127 34.748, 130.364 34.985, 130.683 34.188 C 130.972 33.466, 130.936 32.603, 130.604 32.271 C 130.272 31.939, 130.036 32.529, 130.079 33.583 M 153 33 C 153 33.733, 153.300 34.033, 153.667 33.667 C 154.033 33.300, 154.033 32.700, 153.667 32.333 C 153.300 31.967, 153 32.267, 153 33 M 90 34 C 90 34.733, 90.300 35.033, 90.667 34.667 C 91.033 34.300, 91.033 33.700, 90.667 33.333 C 90.300 32.967, 90 33.267, 90 34 M 94.697 36.393 C 94.288 37.434, 94.189 38.522, 94.476 38.810 C 95.389 39.722, 96.191 38.227, 95.809 36.328 C 95.459 34.588, 95.405 34.591, 94.697 36.393 M 115.710 37 C 115.998 38.100, 116.353 39, 116.500 39 C 116.647 39, 117.002 38.100, 117.290 37 C 117.617 35.750, 117.320 35, 116.500 35 C 115.680 35, 115.383 35.750, 115.710 37 M 163 36.441 C 163 38.753, 164.724 39.165, 165.293 36.989 C 165.630 35.700, 165.318 35, 164.406 35 C 163.633 35, 163 35.648, 163 36.441 M 104 37 C 104 37.733, 104.300 38.033, 104.667 37.667 C 105.033 37.300, 105.033 36.700, 104.667 36.333 C 104.300 35.967, 104 36.267, 104 37 M 96.015 41.250 C 96.004 42.581, 96.825 43, 99.441 43 C 101.334 43, 103.156 42.557, 103.491 42.015 C 103.870 41.401, 102.912 41.268, 100.948 41.660 C 98.783 42.093, 97.521 41.854, 96.914 40.895 C 96.207 39.779, 96.028 39.850, 96.015 41.250" stroke="none" fill="#bc7c3a" fill-rule="evenodd"/><path d="M 84.676 7.750 C 83.639 9.511, 85.967 20.503, 87.635 21.722 C 92.484 25.268, 98.989 21.460, 99.014 15.061 C 99.021 13.103, 99.299 10.488, 99.630 9.250 C 100.174 7.220, 99.879 7, 96.617 7 L 93 7 93 13 C 93 16.821, 92.586 19, 91.861 19 C 91.075 19, 90.891 17.140, 91.266 13 L 91.810 7 88.464 7 C 86.624 7, 84.919 7.338, 84.676 7.750 M 101.909 7.250 C 101.859 7.388, 101.746 11.008, 101.659 15.296 L 101.500 23.091 104.992 22.796 C 107.468 22.586, 108.586 21.957, 108.838 20.632 C 109.033 19.604, 108.795 19.008, 108.310 19.308 C 107.825 19.608, 107.429 18.981, 107.429 17.915 C 107.429 14.712, 109.475 16.402, 109.818 19.887 C 110.098 22.742, 110.449 23.084, 112.818 22.810 C 115.103 22.546, 115.469 22.068, 115.289 19.583 C 115.173 17.979, 114.589 16.364, 113.992 15.995 C 113.262 15.544, 113.414 14.901, 114.453 14.039 C 118.474 10.702, 114.781 7, 107.429 7 C 104.443 7, 101.959 7.112, 101.909 7.250 M 118.473 14.999 L 118.500 22.999 123.750 22.999 C 127.667 23, 129.508 22.492, 131 21 C 132.100 19.900, 133 18.605, 133 18.122 C 133 16.684, 130.387 14.959, 129.419 15.759 C 128.925 16.166, 129.304 15.565, 130.261 14.421 C 132.430 11.828, 132.509 8.409, 130.418 7.607 C 129.548 7.273, 126.498 7, 123.641 7 L 118.445 7 118.473 14.999 M 137.537 8.250 C 136.321 12.050, 134 20.950, 134 21.816 C 134 23.097, 147.781 23.164, 148.571 21.886 C 148.889 21.370, 148.342 17.810, 147.354 13.974 L 145.557 7 141.747 7 C 139.579 7, 137.765 7.539, 137.537 8.250 M 151.473 15.042 C 151.500 23.025, 151.518 23.081, 154 22.792 C 156.304 22.523, 156.477 22.148, 156.206 18 L 155.912 13.500 159.074 18.250 C 161.392 21.731, 162.881 23, 164.650 23 C 167.514 23, 167.705 22.516, 168.311 13.695 L 168.779 6.890 165.639 7.195 C 162.829 7.468, 162.522 7.815, 162.711 10.500 L 162.922 13.500 160.983 11 C 159.917 9.625, 159.034 8.162, 159.022 7.750 C 159.010 7.338, 157.300 7, 155.223 7 L 151.445 7 151.473 15.042 M 108 12.559 C 108 13.416, 108.450 13.840, 109 13.500 C 109.550 13.160, 110 12.459, 110 11.941 C 110 11.423, 109.550 11, 109 11 C 108.450 11, 108 11.702, 108 12.559 M 124 12.500 C 124 13.325, 124.450 14, 125 14 C 125.550 14, 126 13.325, 126 12.500 C 126 11.675, 125.550 11, 125 11 C 124.450 11, 124 11.675, 124 12.500 M 140 13 C 140 13.733, 140.300 14.033, 140.667 13.667 C 141.033 13.300, 141.033 12.700, 140.667 12.333 C 140.300 11.967, 140 12.267, 140 13 M 140.333 15.667 C 140.700 16.033, 141.300 16.033, 141.667 15.667 C 142.033 15.300, 141.733 15, 141 15 C 140.267 15, 139.967 15.300, 140.333 15.667 M 124 17.500 C 124 18.325, 124.450 19, 125 19 C 125.550 19, 126 18.325, 126 17.500 C 126 16.675, 125.550 16, 125 16 C 124.450 16, 124 16.675, 124 17.500 M 139 18.833 C 139 19.292, 139.675 19.667, 140.500 19.667 C 141.325 19.667, 142 19.292, 142 18.833 C 142 18.375, 141.325 18, 140.500 18 C 139.675 18, 139 18.375, 139 18.833 M 83.635 26.782 C 83.369 27.213, 84.108 30.813, 85.277 34.782 C 87.023 40.712, 87.768 41.997, 89.451 41.985 C 92.400 41.963, 93.588 40.901, 94.469 37.500 C 95.267 34.421, 95.391 34.531, 96.432 39.250 C 96.874 41.254, 97.643 41.996, 99.269 41.985 C 102.731 41.961, 103.529 40.933, 104.884 34.750 C 105.744 30.824, 106.626 29, 107.664 29 C 108.898 29, 109.120 30.174, 108.842 35.250 L 108.500 41.500 115 41.500 L 121.500 41.500 121.813 38.250 C 122.077 35.518, 121.793 35, 120.031 35 C 118.782 35, 117.585 35.908, 117.068 37.250 C 116.240 39.396, 116.164 39.410, 115.420 37.560 C 114.928 36.335, 115.075 35.475, 115.820 35.227 C 117.382 34.706, 117.333 32.286, 115.750 31.720 C 115.023 31.461, 114.871 30.903, 115.387 30.387 C 115.903 29.871, 116.461 30.023, 116.720 30.750 C 116.966 31.438, 118.254 32, 119.583 32 C 121.603 32, 122 31.506, 122 28.995 L 122 25.990 107.250 26.245 L 92.500 26.500 92.182 29.267 C 92.007 30.789, 91.443 31.774, 90.928 31.456 C 90.414 31.138, 90.268 29.780, 90.605 28.439 C 91.167 26.197, 90.930 26, 87.667 26 C 85.715 26, 83.900 26.352, 83.635 26.782 M 127.158 27.750 C 126.275 29.445, 123 40.198, 123 41.404 C 123 41.732, 124.334 42, 125.965 42 C 127.976 42, 129.300 41.308, 130.081 39.848 C 131.071 38, 130.998 37.787, 129.564 38.337 C 128.583 38.714, 128.148 38.570, 128.507 37.989 C 128.843 37.445, 129.775 37, 130.578 37 C 131.646 37, 131.865 37.689, 131.394 39.568 C 130.776 42.028, 130.911 42.122, 134.616 41.818 C 137.450 41.585, 138.578 41.001, 138.838 39.632 C 139.035 38.592, 138.756 38.033, 138.209 38.371 C 137.668 38.705, 137.283 38.421, 137.354 37.739 C 137.424 37.058, 136.878 34.138, 136.141 31.250 C 134.857 26.222, 134.658 26, 131.435 26 C 129.245 26, 127.752 26.611, 127.158 27.750 M 140 27.095 C 140 27.697, 140.951 31.322, 142.114 35.150 C 144.186 41.971, 144.290 42.104, 147.364 41.805 C 150.263 41.523, 150.648 41.028, 152.462 35.250 C 153.623 31.551, 154.988 29, 155.804 29 C 156.867 29, 157.105 30.438, 156.842 35.250 L 156.500 41.500 163 41.500 L 169.500 41.500 169.813 38.250 C 170.077 35.518, 169.793 35, 168.031 35 C 166.782 35, 165.585 35.908, 165.068 37.250 C 164.240 39.396, 164.164 39.410, 163.420 37.560 C 162.928 36.335, 163.075 35.475, 163.820 35.227 C 165.382 34.706, 165.333 32.286, 163.750 31.720 C 163.023 31.461, 162.871 30.903, 163.387 30.387 C 163.903 29.871, 164.461 30.023, 164.720 30.750 C 164.966 31.438, 166.254 32, 167.583 32 C 169.606 32, 170 31.507, 170 28.979 L 170 25.958 159.250 26.229 L 148.500 26.500 148.814 29.750 C 149.007 31.749, 148.676 33, 147.955 33 C 147.202 33, 146.928 31.744, 147.190 29.500 C 147.593 26.042, 147.552 26, 143.799 26 C 141.710 26, 140 26.493, 140 27.095 M 100.158 31 C 100.158 32.375, 100.385 32.938, 100.662 32.250 C 100.940 31.563, 100.940 30.438, 100.662 29.750 C 100.385 29.063, 100.158 29.625, 100.158 31 M 130.079 33.583 C 130.127 34.748, 130.364 34.985, 130.683 34.188 C 130.972 33.466, 130.936 32.603, 130.604 32.271 C 130.272 31.939, 130.036 32.529, 130.079 33.583 M 90 34 C 90 34.733, 90.300 35.033, 90.667 34.667 C 91.033 34.300, 91.033 33.700, 90.667 33.333 C 90.300 32.967, 90 33.267, 90 34" stroke="none" fill="#dcc7ac" fill-rule="evenodd"/></svg>