<svg xmlns="http://www.w3.org/2000/svg" xmlns:xlink="http://www.w3.org/1999/xlink" width="180" zoomAndPan="magnify" viewBox="0 0 135 37.5" height="50" preserveAspectRatio="xMidYMid meet" version="1.0"><defs><g/><clipPath id="39127a24bb"><path d="M 6.710938 0.304688 L 56.300781 0.304688 L 56.300781 36.570312 L 6.710938 36.570312 Z M 6.710938 0.304688 " clip-rule="nonzero"/></clipPath></defs><g clip-path="url(#39127a24bb)"><path fill="#bb9979" d="M 26.800781 14.929688 L 21.460938 9.636719 L 13.511719 17.519531 L 12.339844 16.363281 L 21.460938 7.320312 L 27.96875 13.769531 L 41.550781 0.308594 L 56.300781 14.929688 L 53.683594 17.519531 L 52.515625 16.363281 L 53.960938 14.929688 L 41.550781 2.625 L 19.09375 24.882812 L 21.460938 27.230469 C 28.136719 20.617188 34.8125 14 41.488281 7.382812 L 41.546875 7.320312 L 56.296875 21.941406 L 41.550781 36.5625 L 32.429688 27.519531 L 33.597656 26.363281 L 41.550781 34.246094 L 53.960938 21.941406 L 45.085938 13.144531 L 36.210938 21.941406 L 41.546875 27.230469 L 49.5 19.351562 L 50.667969 20.507812 L 41.550781 29.546875 L 35.042969 23.097656 L 21.460938 36.5625 L 6.710938 21.941406 L 9.328125 19.351562 L 10.496094 20.507812 L 9.046875 21.941406 L 21.460938 34.246094 L 43.917969 11.988281 L 41.546875 9.640625 C 34.871094 16.253906 28.195312 22.871094 21.523438 29.488281 L 21.460938 29.546875 L 6.710938 14.929688 L 21.460938 0.308594 L 30.582031 9.347656 L 29.414062 10.507812 L 21.460938 2.625 L 9.050781 14.929688 L 17.925781 23.726562 Z M 26.800781 14.929688 " fill-opacity="1" fill-rule="evenodd"/></g><g fill="#f2eddb" fill-opacity="1"><g transform="translate(63.464483, 16.733218)"><g><path d="M 5.78125 0.203125 C 4.25 0.203125 3.0625 -0.128906 2.21875 -0.796875 C 1.382812 -1.472656 0.96875 -2.570312 0.96875 -4.09375 L 0.96875 -9.015625 L 0.234375 -9.015625 L 0.234375 -11.421875 L 5.65625 -11.421875 L 5.65625 -9.015625 L 5.078125 -9.015625 L 5.078125 -3.34375 C 5.078125 -3.019531 5.144531 -2.78125 5.28125 -2.625 C 5.425781 -2.476562 5.640625 -2.40625 5.921875 -2.40625 C 6.210938 -2.40625 6.425781 -2.476562 6.5625 -2.625 C 6.707031 -2.78125 6.78125 -3.019531 6.78125 -3.34375 L 6.78125 -9.015625 L 6.1875 -9.015625 L 6.1875 -11.421875 L 11.21875 -11.421875 L 11.21875 -9.015625 L 10.484375 -9.015625 L 10.484375 -4.09375 C 10.484375 -2.570312 10.078125 -1.472656 9.265625 -0.796875 C 8.460938 -0.128906 7.300781 0.203125 5.78125 0.203125 Z M 5.78125 0.203125 "/></g></g></g><g fill="#f2eddb" fill-opacity="1"><g transform="translate(75.533312, 16.733218)"><g><path d="M 0.296875 -2.40625 L 1.03125 -2.40625 L 1.03125 -9.015625 L 0.296875 -9.015625 L 0.296875 -11.421875 L 7.03125 -11.421875 C 8.289062 -11.421875 9.253906 -11.160156 9.921875 -10.640625 C 10.585938 -10.117188 10.921875 -9.273438 10.921875 -8.109375 C 10.921875 -7.453125 10.785156 -6.882812 10.515625 -6.40625 C 10.253906 -5.925781 9.878906 -5.59375 9.390625 -5.40625 L 9.40625 -5.265625 C 10.34375 -5.117188 10.8125 -4.539062 10.8125 -3.53125 L 10.8125 -2.40625 L 11.5 -2.40625 L 11.5 0 L 6.859375 0 L 6.859375 -3.453125 C 6.859375 -3.828125 6.800781 -4.113281 6.6875 -4.3125 C 6.570312 -4.507812 6.394531 -4.640625 6.15625 -4.703125 C 5.914062 -4.773438 5.578125 -4.8125 5.140625 -4.8125 L 5.140625 -2.40625 L 6.109375 -2.40625 L 6.109375 0 L 0.296875 0 Z M 5.921875 -6.609375 C 6.210938 -6.609375 6.425781 -6.679688 6.5625 -6.828125 C 6.707031 -6.984375 6.78125 -7.222656 6.78125 -7.546875 L 6.78125 -8.0625 C 6.78125 -8.382812 6.707031 -8.625 6.5625 -8.78125 C 6.425781 -8.9375 6.210938 -9.015625 5.921875 -9.015625 L 5.140625 -9.015625 L 5.140625 -6.609375 Z M 5.921875 -6.609375 "/></g></g></g><g fill="#f2eddb" fill-opacity="1"><g transform="translate(87.880752, 16.733218)"><g><path d="M 0.296875 -2.40625 L 1.03125 -2.40625 L 1.03125 -9.015625 L 0.296875 -9.015625 L 0.296875 -11.421875 L 7.03125 -11.421875 C 8.25 -11.421875 9.203125 -11.171875 9.890625 -10.671875 C 10.578125 -10.171875 10.921875 -9.457031 10.921875 -8.53125 C 10.921875 -7.945312 10.78125 -7.457031 10.5 -7.0625 C 10.226562 -6.664062 9.910156 -6.367188 9.546875 -6.171875 C 9.179688 -5.972656 8.828125 -5.835938 8.484375 -5.765625 L 8.484375 -5.625 C 9.171875 -5.550781 9.789062 -5.328125 10.34375 -4.953125 C 10.90625 -4.585938 11.1875 -3.925781 11.1875 -2.96875 C 11.1875 -1.9375 10.800781 -1.179688 10.03125 -0.703125 C 9.257812 -0.234375 8.257812 0 7.03125 0 L 0.296875 0 Z M 5.921875 -6.609375 C 6.210938 -6.609375 6.425781 -6.679688 6.5625 -6.828125 C 6.707031 -6.984375 6.78125 -7.222656 6.78125 -7.546875 L 6.78125 -8.0625 C 6.78125 -8.382812 6.707031 -8.625 6.5625 -8.78125 C 6.425781 -8.9375 6.210938 -9.015625 5.921875 -9.015625 L 5.140625 -9.015625 L 5.140625 -6.609375 Z M 6.03125 -2.40625 C 6.3125 -2.40625 6.519531 -2.476562 6.65625 -2.625 C 6.800781 -2.78125 6.875 -3.019531 6.875 -3.34375 L 6.875 -3.984375 C 6.875 -4.304688 6.800781 -4.546875 6.65625 -4.703125 C 6.519531 -4.859375 6.3125 -4.9375 6.03125 -4.9375 L 5.140625 -4.9375 L 5.140625 -2.40625 Z M 6.03125 -2.40625 "/></g></g></g><g fill="#f2eddb" fill-opacity="1"><g transform="translate(99.861595, 16.733218)"><g><path d="M 11.0625 -2.40625 L 11.65625 -2.40625 L 11.65625 0 L 5.890625 0 L 5.890625 -2.40625 L 6.78125 -2.40625 L 6.546875 -3.578125 L 4.546875 -3.578125 L 4.3125 -2.40625 L 5.1875 -2.40625 L 5.1875 0 L 0.171875 0 L 0.171875 -2.40625 L 0.765625 -2.40625 L 3.25 -11.421875 L 8.578125 -11.421875 Z M 4.875 -5.140625 L 6.21875 -5.140625 L 5.625 -8.0625 L 5.46875 -8.0625 Z M 4.875 -5.140625 "/></g></g></g><g fill="#f2eddb" fill-opacity="1"><g transform="translate(112.297021, 16.733218)"><g><path d="M 8.75 -11.421875 L 13.5625 -11.421875 L 13.5625 -9.015625 L 12.828125 -9.015625 L 12.828125 0 L 8.703125 0 L 4.40625 -6.609375 L 4.40625 -2.40625 L 5.109375 -2.40625 L 5.109375 0 L 0.296875 0 L 0.296875 -2.40625 L 1.03125 -2.40625 L 1.03125 -9.015625 L 0.296875 -9.015625 L 0.296875 -11.421875 L 5.59375 -11.421875 L 9.453125 -5.53125 L 9.453125 -9.015625 L 8.75 -9.015625 Z M 8.75 -11.421875 "/></g></g></g><path stroke-linecap="butt" transform="matrix(0.740132, 0, 0, 0.740132, 56.346463, 5.168051)" fill="none" stroke-linejoin="miter" d="M 16.874668 16.276556 C 14.800501 16.276556 13.196057 15.822667 12.061334 14.909612 C 10.93189 13.996556 10.367168 12.518778 10.367168 10.471001 L 10.367168 3.831556 L 9.380223 3.831556 L 9.380223 0.580445 L 16.711057 0.580445 L 16.711057 3.831556 L 15.91939 3.831556 L 15.91939 11.479056 C 15.91939 11.917112 16.01439 12.239056 16.20439 12.44489 C 16.399668 12.645445 16.684668 12.745723 17.069946 12.745723 C 17.455223 12.745723 17.740223 12.645445 17.930223 12.44489 C 18.120223 12.239056 18.215223 11.917112 18.215223 11.479056 L 18.215223 3.831556 L 17.428835 3.831556 L 17.428835 0.580445 L 24.221335 0.580445 L 24.221335 3.831556 L 23.23439 3.831556 L 23.23439 10.471001 C 23.23439 12.518778 22.685501 13.996556 21.587724 14.909612 C 20.495224 15.822667 18.922446 16.276556 16.874668 16.276556 Z M 25.767724 12.745723 L 26.759946 12.745723 L 26.759946 3.831556 L 25.767724 3.831556 L 25.767724 0.580445 L 34.861335 0.580445 C 36.566058 0.580445 37.864391 0.928778 38.761613 1.630722 C 39.664113 2.327389 40.112724 3.467389 40.112724 5.040167 C 40.112724 5.921556 39.93328 6.692112 39.574391 7.336 C 39.22078 7.985167 38.714113 8.439056 38.049113 8.687112 L 38.075502 8.887667 C 39.342169 9.082945 39.975502 9.864056 39.975502 11.225723 L 39.975502 12.745723 L 40.904391 12.745723 L 40.904391 16.002112 L 34.623835 16.002112 L 34.623835 11.341834 C 34.623835 10.829889 34.549946 10.439334 34.396891 10.175445 C 34.249113 9.911556 34.006335 9.732112 33.684391 9.642389 C 33.357169 9.547389 32.90328 9.499889 32.306891 9.499889 L 32.306891 12.745723 L 33.61578 12.745723 L 33.61578 16.002112 L 25.767724 16.002112 Z M 33.37828 7.082667 C 33.763557 7.082667 34.048557 6.982389 34.238557 6.776556 C 34.428557 6.570723 34.523557 6.248778 34.523557 5.816 L 34.523557 5.098223 C 34.523557 4.660167 34.428557 4.3435 34.238557 4.137667 C 34.048557 3.931834 33.763557 3.831556 33.37828 3.831556 L 32.306891 3.831556 L 32.306891 7.082667 Z M 42.45078 12.745723 L 43.437724 12.745723 L 43.437724 3.831556 L 42.45078 3.831556 L 42.45078 0.580445 L 51.544391 0.580445 C 53.196336 0.580445 54.484114 0.918222 55.407725 1.5885 C 56.331336 2.264056 56.795781 3.229889 56.795781 4.486 C 56.795781 5.261834 56.611058 5.921556 56.241614 6.459889 C 55.872169 6.992945 55.439392 7.394056 54.943281 7.6685 C 54.447169 7.937667 53.972169 8.117112 53.507725 8.206834 L 53.507725 8.407389 C 54.441892 8.502389 55.291614 8.797945 56.041058 9.304612 C 56.795781 9.800723 57.170503 10.703223 57.170503 11.996278 C 57.170503 13.384334 56.648003 14.397667 55.603003 15.041556 C 54.563281 15.680167 53.212169 16.002112 51.544391 16.002112 L 42.45078 16.002112 Z M 50.061336 7.082667 C 50.441336 7.082667 50.731614 6.982389 50.921614 6.776556 C 51.111614 6.570723 51.206614 6.248778 51.206614 5.816 L 51.206614 5.098223 C 51.206614 4.660167 51.111614 4.3435 50.921614 4.137667 C 50.731614 3.931834 50.441336 3.831556 50.061336 3.831556 L 48.989947 3.831556 L 48.989947 7.082667 Z M 50.19328 12.745723 C 50.578558 12.745723 50.868836 12.645445 51.058836 12.44489 C 51.248836 12.239056 51.349114 11.917112 51.349114 11.479056 L 51.349114 10.608223 C 51.349114 10.175445 51.248836 9.853501 51.058836 9.652945 C 50.868836 9.447112 50.578558 9.341556 50.19328 9.341556 L 48.989947 9.341556 L 48.989947 12.745723 Z M 73.183281 12.745723 L 73.974948 12.745723 L 73.974948 16.002112 L 66.206059 16.002112 L 66.206059 12.745723 L 67.393559 12.745723 L 67.08217 11.167667 L 64.385225 11.167667 L 64.063281 12.745723 L 65.256059 12.745723 L 65.256059 16.002112 L 58.474114 16.002112 L 58.474114 12.745723 L 59.271058 12.745723 L 62.61717 0.580445 L 69.831892 0.580445 Z M 64.818003 9.061834 L 66.644114 9.061834 L 65.831337 5.119334 L 65.630781 5.119334 Z M 86.852726 0.580445 L 93.354949 0.580445 L 93.354949 3.831556 L 92.362727 3.831556 L 92.362727 16.002112 L 86.794671 16.002112 L 80.989115 7.061556 L 80.989115 12.745723 L 81.933837 12.745723 L 81.933837 16.002112 L 75.436892 16.002112 L 75.436892 12.745723 L 76.429115 12.745723 L 76.429115 3.831556 L 75.436892 3.831556 L 75.436892 0.580445 L 82.593559 0.580445 L 87.808004 8.528778 L 87.808004 3.831556 L 86.852726 3.831556 Z M 86.852726 0.580445 " stroke="#b76e22" stroke-width="0.458479" stroke-opacity="1" stroke-miterlimit="4"/><g fill="#f2eddb" fill-opacity="1"><g transform="translate(62.574012, 30.795718)"><g><path d="M 12.84375 -11.421875 L 17.53125 -11.421875 L 17.53125 -9.015625 L 16.953125 -9.015625 L 14.765625 0 L 10.375 0 L 9.03125 -6.34375 L 8.890625 -6.34375 L 7.484375 0 L 3.09375 0 L 0.765625 -9.015625 L 0.171875 -9.015625 L 0.171875 -11.421875 L 5.609375 -11.421875 L 5.609375 -9.015625 L 5.046875 -9.015625 L 5.625 -5.265625 L 5.765625 -5.265625 L 7.15625 -11.421875 L 11.390625 -11.421875 L 12.671875 -5.265625 L 12.828125 -5.265625 L 13.390625 -9.015625 L 12.84375 -9.015625 Z M 12.84375 -11.421875 "/></g></g></g><g fill="#f2eddb" fill-opacity="1"><g transform="translate(80.889667, 30.795718)"><g><path d="M 0.296875 0 L 0.296875 -2.40625 L 1.03125 -2.40625 L 1.03125 -9.015625 L 0.296875 -9.015625 L 0.296875 -11.421875 L 10.203125 -11.421875 L 10.203125 -6.984375 L 6.90625 -6.984375 L 6.90625 -9.015625 L 5.140625 -9.015625 L 5.140625 -6.6875 L 6.421875 -6.6875 L 6.421875 -5.015625 L 5.140625 -5.015625 L 5.140625 -2.40625 L 6.90625 -2.40625 L 6.90625 -4.71875 L 10.203125 -4.71875 L 10.203125 0 Z M 0.296875 0 "/></g></g></g><g fill="#f2eddb" fill-opacity="1"><g transform="translate(91.961347, 30.795718)"><g><path d="M 11.0625 -2.40625 L 11.65625 -2.40625 L 11.65625 0 L 5.890625 0 L 5.890625 -2.40625 L 6.78125 -2.40625 L 6.546875 -3.578125 L 4.546875 -3.578125 L 4.3125 -2.40625 L 5.1875 -2.40625 L 5.1875 0 L 0.171875 0 L 0.171875 -2.40625 L 0.765625 -2.40625 L 3.25 -11.421875 L 8.578125 -11.421875 Z M 4.875 -5.140625 L 6.21875 -5.140625 L 5.625 -8.0625 L 5.46875 -8.0625 Z M 4.875 -5.140625 "/></g></g></g><g fill="#f2eddb" fill-opacity="1"><g transform="translate(104.396776, 30.795718)"><g><path d="M 6.453125 -11.421875 L 11.359375 -11.421875 L 11.359375 -9.015625 L 10.765625 -9.015625 L 8.140625 0 L 3.390625 0 L 0.765625 -9.015625 L 0.171875 -9.015625 L 0.171875 -11.421875 L 5.8125 -11.421875 L 5.8125 -9.015625 L 5.046875 -9.015625 L 6.0625 -4.09375 L 6.203125 -4.09375 L 7.21875 -9.015625 L 6.453125 -9.015625 Z M 6.453125 -11.421875 "/></g></g></g><g fill="#f2eddb" fill-opacity="1"><g transform="translate(116.538921, 30.795718)"><g><path d="M 0.296875 0 L 0.296875 -2.40625 L 1.03125 -2.40625 L 1.03125 -9.015625 L 0.296875 -9.015625 L 0.296875 -11.421875 L 10.203125 -11.421875 L 10.203125 -6.984375 L 6.90625 -6.984375 L 6.90625 -9.015625 L 5.140625 -9.015625 L 5.140625 -6.6875 L 6.421875 -6.6875 L 6.421875 -5.015625 L 5.140625 -5.015625 L 5.140625 -2.40625 L 6.90625 -2.40625 L 6.90625 -4.71875 L 10.203125 -4.71875 L 10.203125 0 Z M 0.296875 0 "/></g></g></g><path stroke-linecap="butt" transform="matrix(0.740132, 0, 0, 0.740132, 56.346463, 5.168051)" fill="none" stroke-linejoin="miter" d="M 25.203002 19.580445 L 31.546891 19.580445 L 31.546891 22.831557 L 30.749946 22.831557 L 27.799668 35.002113 L 21.872724 35.002113 L 20.067724 26.441557 L 19.867168 26.441557 L 17.967168 35.002113 L 12.040223 35.002113 L 8.88939 22.831557 L 8.097723 22.831557 L 8.097723 19.580445 L 15.433834 19.580445 L 15.433834 22.831557 L 14.679112 22.831557 L 15.449668 27.887668 L 15.650223 27.887668 L 17.53439 19.580445 L 23.239668 19.580445 L 24.986613 27.887668 L 25.18189 27.887668 L 25.957724 22.831557 L 25.203002 22.831557 Z M 33.003557 35.002113 L 33.003557 31.745724 L 33.99578 31.745724 L 33.99578 22.831557 L 33.003557 22.831557 L 33.003557 19.580445 L 46.382725 19.580445 L 46.382725 25.565446 L 41.938836 25.565446 L 41.938836 22.831557 L 39.542724 22.831557 L 39.542724 25.961279 L 41.284391 25.961279 L 41.284391 28.220168 L 39.542724 28.220168 L 39.542724 31.745724 L 41.938836 31.745724 L 41.938836 28.616001 L 46.382725 28.616001 L 46.382725 35.002113 Z M 62.506336 31.745724 L 63.303281 31.745724 L 63.303281 35.002113 L 55.534392 35.002113 L 55.534392 31.745724 L 56.721892 31.745724 L 56.405225 30.167668 L 53.70828 30.167668 L 53.391614 31.745724 L 54.579114 31.745724 L 54.579114 35.002113 L 47.802447 35.002113 L 47.802447 31.745724 L 48.594114 31.745724 L 51.945503 19.580445 L 59.160225 19.580445 Z M 54.146336 28.061835 L 55.972447 28.061835 L 55.159669 24.119334 L 54.959114 24.119334 Z M 73.088281 19.580445 L 79.706615 19.580445 L 79.706615 22.831557 L 78.90967 22.831557 L 75.363004 35.002113 L 68.945226 35.002113 L 65.398559 22.831557 L 64.601614 22.831557 L 64.601614 19.580445 L 72.217448 19.580445 L 72.217448 22.831557 L 71.183003 22.831557 L 72.555226 29.471001 L 72.750503 29.471001 L 74.117448 22.831557 L 73.088281 22.831557 Z M 81.168559 35.002113 L 81.168559 31.745724 L 82.160782 31.745724 L 82.160782 22.831557 L 81.168559 22.831557 L 81.168559 19.580445 L 94.547727 19.580445 L 94.547727 25.565446 L 90.103838 25.565446 L 90.103838 22.831557 L 87.713004 22.831557 L 87.713004 25.961279 L 89.454671 25.961279 L 89.454671 28.220168 L 87.713004 28.220168 L 87.713004 31.745724 L 90.103838 31.745724 L 90.103838 28.616001 L 94.547727 28.616001 L 94.547727 35.002113 Z M 81.168559 35.002113 " stroke="#b76e22" stroke-width="0.458479" stroke-opacity="1" stroke-miterlimit="4"/></svg>