<?xml version="1.0" standalone="no"?>
<!DOCTYPE svg PUBLIC "-//W3C//DTD SVG 20010904//EN"
 "http://www.w3.org/TR/2001/REC-SVG-20010904/DTD/svg10.dtd">
<svg version="1.0" xmlns="http://www.w3.org/2000/svg"
 width="200.000000pt" height="100.000000pt" viewBox="0 0 200.000000 100.000000"
 preserveAspectRatio="xMidYMid meet">
<metadata>
Created by potrace 1.10, written by Peter Selinger 2001-2011
</metadata>
<g transform="translate(0.000000,100.000000) scale(0.100000,-0.100000)"
fill="#000000" stroke="none">
<path d="M300 932 c-59 -28 -79 -47 -105 -98 -33 -65 -32 -74 10 -74 23 0 35
4 33 13 -6 29 42 89 83 102 49 16 108 6 139 -24 23 -21 51 -77 43 -85 -4 -3
11 -6 31 -6 32 0 37 3 31 18 -6 15 -12 38 -14 53 -2 16 -67 81 -95 95 -45 23
-114 26 -156 6z m130 -24 c0 -4 -29 -8 -64 -8 -59 0 -67 -3 -98 -33 -18 -17
-38 -41 -45 -52 -11 -20 -11 -20 -7 0 8 29 25 49 69 79 32 22 49 26 92 25 29
-1 53 -6 53 -11z m55 -35 c15 -16 31 -37 37 -48 8 -15 5 -14 -13 5 -13 14 -35
35 -49 47 -14 13 -20 23 -13 23 7 0 24 -12 38 -27z"/>
<path d="M917 803 c-4 -3 -7 -14 -7 -24 0 -9 -6 -20 -12 -23 -7 -3 11 -5 41
-4 l55 2 -3 -109 c-2 -69 -7 -113 -14 -118 -7 -5 -2 -6 13 -3 14 3 33 6 43 6
17 0 18 9 15 110 l-3 110 38 0 c35 0 37 2 37 30 l0 30 -98 0 c-54 0 -102 -3
-105 -7z"/>
<path d="M1170 669 c0 -91 -4 -138 -10 -134 -5 3 -10 1 -10 -5 0 -7 7 -9 16
-6 9 3 49 6 90 6 72 0 74 1 74 25 0 24 -3 25 -55 25 -54 0 -55 0 -55 30 0 28
3 30 36 30 33 0 35 2 32 28 -3 24 -7 27 -35 24 -31 -3 -33 -2 -33 30 l0 33 55
-3 55 -4 0 31 0 31 -80 0 -80 0 0 -141z"/>
<path d="M1379 803 c0 -5 0 -62 1 -129 1 -105 -1 -124 -17 -139 -17 -18 -17
-18 7 -12 14 4 33 7 44 7 17 0 18 5 12 57 -4 32 -11 62 -16 67 -13 13 -13 106
0 106 6 0 20 -20 32 -45 12 -25 26 -45 30 -45 10 0 10 -4 -6 52 -22 71 -34 88
-61 88 -14 0 -25 -3 -26 -7z"/>
<path d="M1547 803 c-8 -13 -47 -117 -47 -126 0 -19 21 7 40 49 12 25 25 42
30 39 13 -8 13 -98 0 -111 -6 -6 -13 -35 -17 -65 -3 -30 -11 -58 -17 -62 -6
-5 0 -6 14 -3 14 3 33 6 43 6 16 0 17 11 15 138 l-3 137 -27 3 c-14 2 -28 -1
-31 -5z"/>
<path d="M1650 672 c0 -102 -3 -142 -12 -146 -7 -4 -2 -4 12 -1 14 2 33 5 42
5 14 0 16 7 11 35 l-6 35 60 0 c51 0 63 4 84 26 36 38 34 113 -3 150 -23 24
-36 28 -107 32 l-81 5 0 -141z m155 28 l0 -45 -52 -3 -53 -3 0 51 0 51 53 -3
52 -3 0 -45z"/>
<path d="M115 718 c-24 -14 -39 -36 -42 -63 -3 -29 -11 -95 -17 -135 -3 -19
-8 -60 -11 -90 -7 -56 -8 -63 -20 -160 -10 -82 -12 -121 -4 -112 4 4 21 114
38 245 32 240 40 279 62 292 6 4 118 8 249 8 131 0 243 -4 249 -8 23 -14 39
-86 57 -265 3 -30 8 -68 10 -85 2 -16 9 -77 15 -134 8 -83 7 -107 -3 -118 -17
-16 -635 -20 -651 -4 -12 12 -37 15 -37 5 0 -3 7 -12 15 -20 12 -12 68 -15
347 -15 l333 0 18 23 c14 16 17 30 12 53 -4 16 -8 44 -10 60 -2 17 -6 48 -9
70 -3 22 -8 60 -11 85 -3 25 -7 61 -10 80 -2 19 -7 58 -10 85 -18 146 -25 179
-41 195 -12 12 -57 15 -262 17 -170 2 -253 -1 -267 -9z"/>
<path d="M1452 629 c9 -26 15 -30 41 -27 24 2 32 9 38 31 8 30 -2 35 -21 12
-7 -8 -19 -15 -27 -15 -7 0 -16 7 -19 15 -12 29 -23 15 -12 -16z"/>
<path d="M203 643 c19 -3 31 -13 38 -30 22 -59 110 -108 156 -87 10 4 22 8 26
8 15 2 69 60 78 84 6 15 17 22 36 23 16 0 22 3 15 6 -24 10 -61 -7 -78 -35
-19 -33 -106 -90 -112 -73 -2 6 -11 11 -19 11 -9 0 -38 23 -65 50 -37 37 -56
50 -76 49 l-27 -2 28 -4z"/>
<path d="M160 619 c0 -15 15 -48 33 -75 61 -91 178 -122 274 -73 54 28 100 87
109 139 5 31 4 33 -8 15 -7 -11 -13 -22 -14 -25 -8 -36 -63 -99 -99 -115 -80
-33 -158 -21 -219 34 -23 21 -45 56 -50 81 -1 3 -7 14 -13 25 -12 19 -12 19
-13 -6z"/>
<path d="M1145 443 c-57 -15 -105 -76 -105 -135 0 -131 167 -186 249 -82 52
66 26 169 -51 204 -44 20 -57 22 -93 13z m93 -79 c71 -79 -33 -190 -113 -121
-46 39 -31 126 24 146 34 12 61 5 89 -25z"/>
<path d="M1454 439 c-41 -12 -94 -72 -95 -107 -3 -77 12 -111 64 -142 87 -54
207 9 207 108 l0 32 -65 0 c-63 0 -65 -1 -65 -25 0 -22 4 -25 35 -25 40 0 44
-11 13 -40 -63 -58 -158 12 -131 97 11 35 66 65 97 53 15 -5 28 -2 44 11 21
17 22 18 5 27 -31 16 -77 21 -109 11z"/>
<path d="M1753 431 c-96 -44 -110 -155 -28 -231 22 -21 37 -25 85 -25 48 0 63
4 85 25 83 77 65 194 -35 234 -50 20 -56 20 -107 -3z m115 -64 c51 -47 12
-147 -58 -147 -70 0 -109 100 -57 147 41 38 73 38 115 0z"/>
<path d="M850 305 l0 -135 78 0 c76 0 77 0 77 25 0 24 -3 25 -55 25 l-55 0 3
110 4 110 -26 0 -26 0 0 -135z"/>
</g>
</svg>
