<svg xmlns="http://www.w3.org/2000/svg" xmlns:xlink="http://www.w3.org/1999/xlink" width="900" zoomAndPan="magnify" viewBox="0 0 675 675.000002" height="900" preserveAspectRatio="xMidYMid meet" version="1.0"><defs><clipPath id="6ce5e37fa5"><path d="M 0.5 0 L 674.5 0 L 674.5 674 L 0.5 674 Z M 0.5 0 " clip-rule="nonzero"/></clipPath><clipPath id="3850f20f1f"><path d="M 86 393 L 589 393 L 589 674 L 86 674 Z M 86 393 " clip-rule="nonzero"/></clipPath></defs><g clip-path="url(#6ce5e37fa5)"><path fill="#b0a695" d="M 674.53125 337.015625 C 674.53125 423.234375 642.179688 501.867188 588.898438 561.464844 C 527.199219 630.550781 437.445312 674.027344 337.519531 674.027344 C 237.597656 674.027344 147.8125 630.550781 86.136719 561.464844 C 32.863281 501.867188 0.511719 423.234375 0.511719 337.015625 C 0.511719 150.898438 151.378906 0.00390625 337.519531 0.00390625 C 523.632812 0.00390625 674.53125 150.898438 674.53125 337.015625 " fill-opacity="1" fill-rule="nonzero"/></g><path fill="#f3eeea" d="M 337.519531 399.09375 C 398.597656 399.09375 454.234375 329.988281 454.234375 254.109375 C 454.234375 182.414062 440.367188 111.519531 337.519531 111.519531 C 234.660156 111.519531 220.789062 182.414062 220.789062 254.109375 C 220.789062 329.988281 276.429688 399.09375 337.519531 399.09375 " fill-opacity="1" fill-rule="nonzero"/><g clip-path="url(#3850f20f1f)"><path fill="#f3eeea" d="M 588.898438 561.464844 C 527.199219 630.550781 437.445312 674.027344 337.519531 674.027344 C 237.597656 674.027344 147.8125 630.550781 86.136719 561.464844 C 85.070312 519.84375 112.789062 423.402344 254.164062 393.71875 C 278.347656 418.402344 308.117188 432.359375 337.519531 432.359375 C 366.921875 432.359375 396.667969 418.402344 420.84375 393.71875 C 562.25 423.402344 589.941406 519.84375 588.898438 561.464844 " fill-opacity="1" fill-rule="nonzero"/></g></svg>