<svg xmlns="http://www.w3.org/2000/svg" xmlns:xlink="http://www.w3.org/1999/xlink" width="200" zoomAndPan="magnify" viewBox="0 0 150 149.999998" height="200" preserveAspectRatio="xMidYMid meet" version="1.0"><rect x="-15" width="180" fill="#ffffff" y="-15" height="179.999997" fill-opacity="1"/><rect x="-15" width="180" fill="#ffffff" y="-15" height="179.999997" fill-opacity="1"/><path fill="#000000" d="M 75.777344 0 C 44.847656 0 27.308594 17.363281 26.8125 42.492188 L 26.8125 43.75 L 54.117188 43.75 L 54.117188 42.492188 C 54.714844 31.394531 62.378906 24.230469 73.964844 24.230469 C 85.449219 24.230469 93.105469 30.882812 93.105469 40.269531 C 93.105469 49.660156 89.175781 54.503906 76.179688 62.28125 C 62.277344 70.457031 56.726562 79.539062 58.039062 95.691406 L 58.195312 100 L 84.941406 100 L 84.941406 95.898438 C 84.941406 86.210938 88.671875 81.253906 102.070312 73.484375 C 116.277344 65.105469 123.625 54.511719 123.625 39.367188 C 123.625 16.050781 104.59375 0 75.777344 0 Z M 72.148438 118.75 C 61.898438 118.75 55.503906 124.710938 55.503906 134.421875 C 55.503906 144.046875 61.90625 150 72.148438 150 C 82.390625 150 88.707031 144.046875 88.707031 134.421875 C 88.707031 124.710938 82.398438 118.75 72.148438 118.75 Z M 72.148438 118.75 " fill-opacity="1" fill-rule="nonzero"/></svg>